<svg width="100" height="100" viewBox="0 0 100 100" fill="none" xmlns="http://www.w3.org/2000/svg">
<path d="M80 60C80 71.0457 71.0457 80 60 80H40C28.9543 80 20 71.0457 20 60V50H80V60Z" fill="currentColor"/>
<path d="M75 45H25C22.2386 45 20 42.7614 20 40V40C20 37.2386 22.2386 35 25 35H75C77.7614 35 80 37.2386 80 40V40C80 42.7614 77.7614 45 75 45Z" fill="currentColor"/>
<path d="M30 30C30 27.2386 32.2386 25 35 25H65C67.7614 25 70 27.2386 70 30V35H30V30Z" fill="currentColor" fill-opacity="0.6"/>
</svg>
